<svg width="116" height="116" viewBox="0 0 116 116" fill="none" xmlns="http://www.w3.org/2000/svg">
<circle cx="57.752" cy="57.752" r="57.752" fill="white"/>
<path d="M50.0413 86.8205L66.9663 36.7768L75.4112 36.7076L54.1147 95.7175L48.0942 95.7668L50.0413 86.8205ZM33.4293 37.0518L51.011 86.8126L53.2258 95.7248L47.2053 95.7741L24.9844 37.1211L33.4293 37.0518Z" fill="#81C784"/>
<path d="M92.5253 47.0656V66.2331C91.878 67.192 90.8471 68.2709 89.4326 69.4696C88.0181 70.6443 86.0642 71.6752 83.5709 72.5623C81.1016 73.4253 77.913 73.8569 74.0052 73.8569C70.8166 73.8569 67.8797 73.3055 65.1946 72.2027C62.5335 71.0759 60.22 69.4456 58.2541 67.3119C56.3122 65.1542 54.8018 62.541 53.7229 59.4723C52.6681 56.3796 52.1406 52.8794 52.1406 48.9716V44.9079C52.1406 41.0001 52.5961 37.5119 53.5072 34.4432C54.4422 31.3745 55.8087 28.7732 57.6068 26.6395C59.4048 24.4818 61.6105 22.8516 64.2237 21.7488C66.8369 20.622 69.8336 20.0586 73.214 20.0586C77.2177 20.0586 80.5621 20.7538 83.2473 22.1444C85.9564 23.5109 88.0661 25.4049 89.5765 27.8263C91.1108 30.2477 92.0938 33.0047 92.5253 36.0974H85.5848C85.2731 34.2034 84.6498 32.4773 83.7148 30.9189C82.8037 29.3606 81.4971 28.114 79.795 27.179C78.0928 26.22 75.8991 25.7405 73.214 25.7405C70.7926 25.7405 68.6949 26.184 66.9208 27.0711C65.1467 27.9581 63.6842 29.2288 62.5335 30.883C61.3827 32.5372 60.5196 34.5391 59.9443 36.8885C59.3928 39.238 59.1171 41.8872 59.1171 44.836V48.9716C59.1171 51.9923 59.4648 54.6894 60.16 57.0629C60.8793 59.4364 61.8982 61.4622 63.2167 63.1404C64.5353 64.7946 66.1056 66.0533 67.9277 66.9163C69.7737 67.7794 71.8115 68.2109 74.0411 68.2109C76.5105 68.2109 78.5123 68.0072 80.0467 67.5996C81.581 67.1681 82.7798 66.6646 83.6428 66.0892C84.5059 65.4899 85.1652 64.9265 85.6207 64.399V52.6756H73.5017V47.0656H92.5253Z" fill="#A1887F"/>
</svg>
